# xmcd CD database file
#
# Track frame offsets:
#	150
#	15087
#	28137
#	40237
#	50250
#	60837
#	71675
#	83325
#	94025
#	105087
#	123225
#	139137
#	150300
#	165987
#	177997
#	188722
#
# Disc length: 2681 seconds
#
# Revision: 2
# Processed by: cddbd v1.4b41PL1 Copyright (c) Steve Scherf et al.
# Submitted via: Feurio! 1.60 - http://www.feurio.com
#
DISCID=ad0a7710,cd0a7710
DTITLE=Various Artist - Country Queens CD2
DYEAR=1900
DGENRE=
TTITLE0=Jennaie C. Riley - Harper Vallay P.T.A
TTITLE1=Lynn Anderson - Rose Garden
TTITLE2=Loretta Lynn - Me And Bobby Mcgee
TTITLE3=Patti Page - A Poor Man´s Roses
TTITLE4=Patsy Cline - Honky Tonk Merry Go Round
TTITLE5=Donna Fargo - All That Keeping Me Alive
TTITLE6=Dolly Parton - Letter To Heaven
TTITLE7=Billie Joe Spears - Ißm So Lonely I Could Cry
TTITLE8=Jeanie C. Riley - Box Of Memories
TTITLE9=Jeannie Pruett - Please Play Satin Sheets For Me
TTITLE10=Anne Murray - Both Sides Now
TTITLE11=The Kendalls - Heaven Just Sin Away
TTITLE12=Girls Of The Golden West - I Want To Be A Real Cowgirl
TTITLE13=Billie Joe Spears - Misty Blue
TTITLE14=Sandy Posey - Single Girl
TTITLE15=Jo Ann Houston - Blue Ble Day
EXTD=
EXTT0=
EXTT1=
EXTT2=
EXTT3=
EXTT4=
EXTT5=
EXTT6=
EXTT7=
EXTT8=
EXTT9=
EXTT10=
EXTT11=
EXTT12=
EXTT13=
EXTT14=
EXTT15=
PLAYORDER=
